<svg xmlns="http://www.w3.org/2000/svg" version="1.1" xmlns:xlink="http://www.w3.org/1999/xlink"
  xmlns:svgjs="http://svgjs.dev/svgjs" width="1500" height="939" viewBox="0 0 1500 939">
  <g transform="matrix(1,0,0,1,-0.9090909090909918,-1.5145161290323017)">
    <svg viewBox="0 0 396 248" data-background-color="#ffffff" preserveAspectRatio="xMidYMid meet"
      height="939" width="1500" xmlns="http://www.w3.org/2000/svg"
      xmlns:xlink="http://www.w3.org/1999/xlink">
      <g id="tight-bounds" transform="matrix(1,0,0,1,0.2400000000000091,0.4000000000000057)">
        <svg viewBox="0 0 395.52 247.2" height="247.2" width="395.52">
          <g>
            <svg></svg>
          </g>
          <g>
            <svg viewBox="0 0 395.52 247.2" height="247.2" width="395.52">
              <g transform="matrix(1,0,0,1,75.54432,93.51054805023134)">
                <svg viewBox="0 0 244.43135999999998 60.17890389953733" height="60.17890389953733"
                  width="244.43135999999998">
                  <g>
                    <svg viewBox="0 0 244.43135999999998 60.17890389953733"
                      height="60.17890389953733" width="244.43135999999998">
                      <g>
                        <svg viewBox="0 0 244.43135999999998 60.17890389953733"
                          height="60.17890389953733" width="244.43135999999998">
                          <g>
                            <svg viewBox="0 0 244.43135999999998 60.17890389953733"
                              height="60.17890389953733" width="244.43135999999998">
                              <g id="textblocktransform">
                                <svg viewBox="0 0 244.43135999999998 60.17890389953733"
                                  height="60.17890389953733" width="244.43135999999998"
                                  id="textblock">
                                  <g>
                                    <svg viewBox="0 0 244.43135999999998 60.17890389953733"
                                      height="60.17890389953733" width="244.43135999999998">
                                      <g transform="matrix(1,0,0,1,0,0)">
                                        <svg width="244.43135999999998"
                                          viewBox="3.9 -36.75 151.29 37.25"
                                          height="60.17890389953733" data-palette-color="#f3b9af">
                                          <path
                                            d="M28.7 0L22.25 0 14.85-13.9Q12.55-13.8 10.75-13.8L10.75-13.8 9.35-13.8 9.35 0 3.9 0 3.9-36.75 12.25-36.75Q18.6-36.75 22.7-34.13 26.8-31.5 26.8-25.6L26.8-25.6Q26.8-21.9 25.08-19.23 23.35-16.55 19.95-15.1L19.95-15.1 28.7 0ZM9.35-18.35L12.9-18.35Q17.8-18.35 19.63-20.48 21.45-22.6 21.45-25.55L21.45-25.55Q21.45-32.1 12.7-32.1L12.7-32.1 9.35-32.1 9.35-18.35ZM44.9 0.5Q40.8 0.5 38.05-1.13 35.3-2.75 34-5.48 32.7-8.2 32.7-11.45L32.7-11.45Q32.7-15.1 34.22-17.85 35.75-20.6 38.45-22.08 41.15-23.55 44.55-23.55L44.55-23.55Q49.85-23.55 52.42-20.63 55-17.7 55-12.4L55-12.4Q55-11.05 54.85-9.6L54.85-9.6 38.35-9.6Q38.9-6.55 40.52-5.2 42.15-3.85 45.05-3.85L45.05-3.85Q47.45-3.85 49-4.25 50.55-4.65 51.85-5.35L51.85-5.35 53.5-1.5Q52.25-0.7 50.1-0.1 47.95 0.5 44.9 0.5L44.9 0.5ZM38.35-13.35L49.75-13.35Q49.8-16.45 48.4-17.73 47-19 44.4-19L44.4-19Q39.15-19 38.35-13.35L38.35-13.35ZM71.5 0.5Q67.39 0.5 64.64-1.13 61.89-2.75 60.59-5.48 59.3-8.2 59.3-11.45L59.3-11.45Q59.3-15.1 60.82-17.85 62.34-20.6 65.05-22.08 67.75-23.55 71.14-23.55L71.14-23.55Q76.44-23.55 79.02-20.63 81.59-17.7 81.59-12.4L81.59-12.4Q81.59-11.05 81.44-9.6L81.44-9.6 64.94-9.6Q65.5-6.55 67.12-5.2 68.75-3.85 71.64-3.85L71.64-3.85Q74.05-3.85 75.59-4.25 77.14-4.65 78.44-5.35L78.44-5.35 80.09-1.5Q78.84-0.7 76.69-0.1 74.55 0.5 71.5 0.5L71.5 0.5ZM64.94-13.35L76.34-13.35Q76.39-16.45 75-17.73 73.59-19 71-19L71-19Q65.75-19 64.94-13.35L64.94-13.35ZM87.24 0L87.24-22.95 92.64-22.95 92.64-18.8Q93.74-21.15 95.87-22.35 97.99-23.55 100.74-23.55L100.74-23.55Q106.89-23.5 108.29-19.3L108.29-19.3Q109.39-21.25 111.59-22.4 113.79-23.55 116.24-23.55L116.24-23.55Q119.84-23.55 121.69-22.18 123.54-20.8 124.17-18.28 124.79-15.75 124.79-11.5L124.79-11.5 124.79 0 119.34 0 119.34-11.55Q119.34-15.6 118.52-17.35 117.69-19.1 115.34-19.1L115.34-19.1Q112.19-19.1 110.57-16.98 108.94-14.85 108.94-11.4L108.94-11.4 108.94 0 103.54 0 103.54-12.35Q103.54-15 103.34-16.3 103.14-17.6 102.24-18.35 101.34-19.1 99.34-19.1L99.34-19.1Q97.59-19.1 96.07-18.05 94.54-17 93.62-15.23 92.69-13.45 92.69-11.4L92.69-11.4 92.69 0 87.24 0ZM141.84 0.5Q138.74 0.5 136.11-0.98 133.49-2.45 131.91-5.18 130.34-7.9 130.34-11.55L130.34-11.55Q130.34-15.15 131.71-17.85 133.09-20.55 135.64-22.05 138.19-23.55 141.64-23.55L141.64-23.55Q143.64-23.55 145.39-22.85 147.14-22.15 148.34-21.13 149.54-20.1 149.94-19.1L149.94-19.1 150.04-22.95 155.19-22.95 155.19 0 150.09 0 149.99-4.05Q149.14-2.25 146.89-0.88 144.64 0.5 141.84 0.5L141.84 0.5ZM142.74-4Q145.59-4 147.54-5.98 149.49-7.95 149.49-11.15L149.49-11.15 149.49-11.5Q149.49-13.65 148.59-15.35 147.69-17.05 146.14-18 144.59-18.95 142.74-18.95L142.74-18.95Q139.54-18.95 137.79-16.88 136.04-14.8 136.04-11.5L136.04-11.5Q136.04-8.15 137.76-6.08 139.49-4 142.74-4L142.74-4Z"
                                            opacity="1" transform="matrix(1,0,0,1,0,0)"
                                            fill="#f3b9af" class="wordmark-text-0"
                                            data-fill-palette-color="primary" id="text-0"></path>
                                        </svg>
                                      </g>
                                    </svg>
                                  </g>
                                </svg>
                              </g>
                            </svg>
                          </g>
                        </svg>
                      </g>
                    </svg>
                  </g>
                </svg>
              </g>
              <g>
                <path
                  d="M0 123.6c0-68.262 55.338-123.6 123.6-123.6 55.302 0 102.121 36.32 117.906 86.407l-2.849 0c-15.688-48.566-61.27-83.694-115.057-83.694-66.764 0-120.886 54.123-120.886 120.887 0 66.764 54.123 120.886 120.886 120.886 53.787 0 99.37-35.128 115.057-83.693l2.849 0c-15.785 50.088-62.604 86.407-117.906 86.407-68.262 0-123.6-55.338-123.6-123.6z"
                  fill="#f3b9af" stroke="transparent" data-fill-palette-color="tertiary"></path>
              </g>
            </svg>
          </g>
          <defs></defs>
        </svg>
        <rect width="395.52" height="247.2" fill="none" stroke="none" visibility="hidden"></rect>
      </g>
    </svg>
  </g>
</svg>