<svg xmlns="http://www.w3.org/2000/svg" version="1.1" xmlns:xlink="http://www.w3.org/1999/xlink" xmlns:svgjs="http://svgjs.dev/svgjs" width="1500" height="939" viewBox="0 0 1500 939"><g transform="matrix(1,0,0,1,-0.9090909090909918,-1.5145161290323017)"><svg viewBox="0 0 396 248" data-background-color="#ffffff" preserveAspectRatio="xMidYMid meet" height="939" width="1500" xmlns="http://www.w3.org/2000/svg" xmlns:xlink="http://www.w3.org/1999/xlink"><g id="tight-bounds" transform="matrix(1,0,0,1,0.2400000000000091,0.4000000000000057)"><svg viewBox="0 0 395.52 247.2" height="247.2" width="395.52"><g><svg></svg></g><g><svg viewBox="0 0 395.52 247.2" height="247.2" width="395.52"><g transform="matrix(1,0,0,1,145.03327,47.215199999999996)"><svg viewBox="0 0 105.45346 152.7696" height="152.7696" width="105.45346"><g><svg viewBox="0 0 105.45346 152.7696" height="152.7696" width="105.45346"><g><svg viewBox="0 0 105.45346 152.7696" height="152.7696" width="105.45346"><g><svg viewBox="0 0 105.45346 152.7696" height="152.7696" width="105.45346"><g id="textblocktransform"><svg viewBox="0 0 105.45346 152.7696" height="152.7696" width="105.45346" id="textblock"><g><svg viewBox="0 0 105.45346 152.7696" height="152.7696" width="105.45346"><g transform="matrix(1,0,0,1,0,0)"><svg width="105.45346" viewBox="4.5 -35.4 24.85 36" height="152.7696" data-palette-color="#f3b9af"><path d="M29.35-1.5L24.9 0.6 20.55-8.9Q18.9-12.45 16.4-13.95 13.9-15.45 10-15.45L10-15.45 9.25-15.45 9.25 0 4.5 0 4.5-34.9Q7.15-35.15 9.58-35.27 12-35.4 14.75-35.4L14.75-35.4Q21.15-35.4 24.38-32.8 27.6-30.2 27.6-26.1L27.6-26.1Q27.6-22.45 25.43-20.23 23.25-18 19.15-16.9L19.15-16.9Q20.5-16.3 21.55-15.48 22.6-14.65 23.58-13.28 24.55-11.9 25.55-9.7L25.55-9.7 29.35-1.5ZM9.25-31.2L9.25-19.45 14.75-19.45Q18.35-19.45 20.6-21.05 22.85-22.65 22.85-25.65L22.85-25.65Q22.85-28.15 20.75-29.78 18.65-31.4 14.75-31.4L14.75-31.4Q13.05-31.4 11.7-31.35 10.35-31.3 9.25-31.2L9.25-31.2Z" opacity="1" transform="matrix(1,0,0,1,0,0)" fill="#f3b9af" class="wordmark-text-0" data-fill-palette-color="primary" id="text-0"></path></svg></g></svg></g></svg></g></svg></g></svg></g></svg></g></svg></g><g><path d="M0 123.6c0-68.262 55.338-123.6 123.6-123.6 30.402 0 58.24 10.976 79.768 29.183l-11.147 0c-19.26-14.022-42.974-22.294-68.621-22.295-25.647 0-49.361 8.272-68.621 22.295h-2.252l0 1.681c-27.866 21.329-45.838 54.934-45.839 92.736 0 37.802 17.972 71.407 45.839 92.736v1.681l2.252 0c19.26 14.022 42.974 22.294 68.621 22.295 25.647 0 49.361-8.272 68.621-22.295l11.147 0c-21.528 18.206-49.366 29.183-79.768 29.183-68.262 0-123.6-55.338-123.6-123.6z" fill="#f3b9af" stroke="transparent" data-fill-palette-color="tertiary"></path></g></svg></g><defs></defs></svg><rect width="395.52" height="247.2" fill="none" stroke="none" visibility="hidden"></rect></g></svg></g></svg>