<svg xmlns="http://www.w3.org/2000/svg" version="1.1" xmlns:xlink="http://www.w3.org/1999/xlink" xmlns:svgjs="http://svgjs.dev/svgjs" width="1500" height="1500" viewBox="0 0 1500 1500"><rect width="1500" height="1500" fill="#915eff"></rect><g transform="matrix(0.6666666666666666,0,0,0.6666666666666666,249.39393939393938,435.99032258064517)"><svg viewBox="0 0 396 248" data-background-color="#915eff" preserveAspectRatio="xMidYMid meet" height="939" width="1500" xmlns="http://www.w3.org/2000/svg" xmlns:xlink="http://www.w3.org/1999/xlink"><g id="tight-bounds" transform="matrix(1,0,0,1,0.2400000000000091,0.4000000000000057)"><svg viewBox="0 0 395.52 247.2" height="247.2" width="395.52"><g><svg></svg></g><g><svg viewBox="0 0 395.52 247.2" height="247.2" width="395.52"><g transform="matrix(1,0,0,1,142.3264594285714,47.215199999999996)"><svg viewBox="0 0 110.86708114285715 152.7696" height="152.7696" width="110.86708114285715"><g><svg viewBox="0 0 110.86708114285715 152.7696" height="152.7696" width="110.86708114285715"><g><svg viewBox="0 0 110.86708114285715 152.7696" height="152.7696" width="110.86708114285715"><g><svg viewBox="0 0 110.86708114285715 152.7696" height="152.7696" width="110.86708114285715"><g id="textblocktransform"><svg viewBox="0 0 110.86708114285715 152.7696" height="152.7696" width="110.86708114285715" id="textblock"><g><svg viewBox="0 0 110.86708114285715 152.7696" height="152.7696" width="110.86708114285715"><g transform="matrix(1,0,0,1,0,0)"><svg width="110.86708114285715" viewBox="4.5 -35 25.4 35" height="152.7696" data-palette-color="#ffffff"><path d="M9.75 0L4.5 0 5-4 5-31 4.5-35 16.65-35Q20.35-35 22.95-33.52 25.55-32.05 26.93-29.7 28.3-27.35 28.3-24.65L28.3-24.65Q28.3-22.85 27.65-21.03 27-19.2 25.63-17.68 24.25-16.15 22.03-15.23 19.8-14.3 16.65-14.3L16.65-14.3 9.25-14.3 9.25-4 9.75 0ZM29.9 0L24.85 0 22.65-4 14.4-15.8 18.25-15.8 21.25-13.05 29.9 0ZM9.25-31.3L9.25-18 16.45-18Q20.25-18 21.98-19.93 23.7-21.85 23.7-24.45L23.7-24.45Q23.7-27.25 21.85-29.28 20-31.3 16.35-31.3L16.35-31.3 9.25-31.3Z" opacity="1" transform="matrix(1,0,0,1,0,0)" fill="#ffffff" class="wordmark-text-0" data-fill-palette-color="primary" id="text-0"></path></svg></g></svg></g></svg></g></svg></g></svg></g></svg></g></svg></g><path d="M70.892 41.215L70.892 0 318.092 0 318.092 247.2 70.892 247.2 70.892 205.985 84.669 205.985 84.669 233.423 304.315 233.423 304.315 13.777 84.669 13.777 84.669 41.215Z" fill="#ffffff" stroke="transparent" data-fill-palette-color="tertiary"></path></svg></g><defs></defs></svg><rect width="395.52" height="247.2" fill="none" stroke="none" visibility="hidden"></rect></g></svg></g></svg>